<svg xmlns="http://www.w3.org/2000/svg" viewBox="0 0 1440 900" role="img" aria-labelledby="title desc">
  <title id="title">Library Management System dashboard</title>
  <desc id="desc">Academic library dashboard showing books, student records, search, borrowed books and availability.</desc>
  <rect width="1440" height="900" fill="#f1f5f7"/><rect width="245" height="900" fill="#202b4b"/>
  <g font-family="Arial,sans-serif"><text x="35" y="62" fill="#fff" font-size="25" font-weight="700">LibraDesk</text><text x="35" y="88" fill="#aebbd8" font-size="12">LIBRARY MANAGEMENT</text><rect x="25" y="137" width="195" height="48" rx="8" fill="#536fe0"/><text x="52" y="168" fill="#fff" font-size="15">Dashboard</text><text x="52" y="230" fill="#bdc8df" font-size="15">Book Collection</text><text x="52" y="280" fill="#bdc8df" font-size="15">Students &amp; Users</text><text x="52" y="330" fill="#bdc8df" font-size="15">Borrow &amp; Return</text><text x="52" y="380" fill="#bdc8df" font-size="15">Reports</text><text x="52" y="430" fill="#bdc8df" font-size="15">Settings</text>
  <text x="282" y="70" fill="#202b4b" font-size="29" font-weight="700">Library Dashboard</text><text x="282" y="98" fill="#718094" font-size="14">Manage your academic collection and member activity</text><circle cx="1302" cy="70" r="22" fill="#dce5ff"/><text x="1294" y="77" fill="#536fe0" font-size="15" font-weight="700">SB</text>
  <rect x="282" y="135" width="250" height="115" rx="12" fill="#fff" stroke="#dce3eb"/><text x="307" y="169" fill="#7d899a" font-size="13">TOTAL BOOKS</text><text x="307" y="216" fill="#202b4b" font-size="33" font-weight="700">1,284</text><text x="420" y="216" fill="#3b9a7c" font-size="12">+24 this month</text>
  <rect x="552" y="135" width="250" height="115" rx="12" fill="#fff" stroke="#dce3eb"/><text x="577" y="169" fill="#7d899a" font-size="13">ACTIVE STUDENTS</text><text x="577" y="216" fill="#202b4b" font-size="33" font-weight="700">486</text><text x="675" y="216" fill="#3b9a7c" font-size="12">+8.2%</text>
  <rect x="822" y="135" width="250" height="115" rx="12" fill="#fff" stroke="#dce3eb"/><text x="847" y="169" fill="#7d899a" font-size="13">BORROWED BOOKS</text><text x="847" y="216" fill="#202b4b" font-size="33" font-weight="700">172</text><text x="950" y="216" fill="#d78b35" font-size="12">Due this week</text>
  <rect x="1092" y="135" width="298" height="115" rx="12" fill="#fff" stroke="#dce3eb"/><text x="1117" y="169" fill="#7d899a" font-size="13">AVAILABLE NOW</text><text x="1117" y="216" fill="#536fe0" font-size="33" font-weight="700">1,112</text><text x="1240" y="216" fill="#3b9a7c" font-size="12">86.6% collection</text>
  <rect x="282" y="278" width="1108" height="65" rx="10" fill="#fff" stroke="#dce3eb"/><circle cx="313" cy="310" r="12" fill="none" stroke="#8997a9" stroke-width="2"/><path d="M322 319l8 8" stroke="#8997a9" stroke-width="2"/><text x="345" y="316" fill="#8a96a5" font-size="15">Search books, authors, ISBN, or student ID...</text><rect x="1168" y="294" width="95" height="34" rx="6" fill="#e8edff"/><text x="1190" y="316" fill="#536fe0" font-size="13">Category</text><rect x="1276" y="294" width="91" height="34" rx="6" fill="#e8edff"/><text x="1293" y="316" fill="#536fe0" font-size="13">Status</text>
  <rect x="282" y="373" width="735" height="425" rx="12" fill="#fff" stroke="#dce3eb"/><text x="309" y="414" fill="#202b4b" font-size="20" font-weight="700">Book Collection</text><text x="892" y="414" fill="#536fe0" font-size="13">View all</text><text x="309" y="455" fill="#8490a0" font-size="12">BOOK TITLE</text><text x="555" y="455" fill="#8490a0" font-size="12">AUTHOR</text><text x="704" y="455" fill="#8490a0" font-size="12">COPIES</text><text x="830" y="455" fill="#8490a0" font-size="12">STATUS</text><path d="M309 470H990M309 537H990M309 604H990M309 671H990M309 738H990" stroke="#e4e9ef"/>
  <text x="309" y="510" fill="#273654" font-size="14" font-weight="700">Clean Code</text><text x="555" y="510" fill="#718094" font-size="13">Robert C. Martin</text><text x="704" y="510" fill="#273654" font-size="14">12</text><rect x="820" y="491" width="92" height="28" rx="14" fill="#dff3e9"/><text x="839" y="510" fill="#328367" font-size="12">Available</text>
  <text x="309" y="577" fill="#273654" font-size="14" font-weight="700">The Pragmatic Programmer</text><text x="555" y="577" fill="#718094" font-size="13">D. Thomas</text><text x="704" y="577" fill="#273654" font-size="14">04</text><rect x="820" y="558" width="92" height="28" rx="14" fill="#fff0cf"/><text x="841" y="577" fill="#ae7928" font-size="12">Borrowed</text>
  <text x="309" y="644" fill="#273654" font-size="14" font-weight="700">Database System Concepts</text><text x="555" y="644" fill="#718094" font-size="13">A. Silberschatz</text><text x="704" y="644" fill="#273654" font-size="14">08</text><rect x="820" y="625" width="92" height="28" rx="14" fill="#dff3e9"/><text x="839" y="644" fill="#328367" font-size="12">Available</text>
  <text x="309" y="711" fill="#273654" font-size="14" font-weight="700">Introduction to Algorithms</text><text x="555" y="711" fill="#718094" font-size="13">Cormen et al.</text><text x="704" y="711" fill="#273654" font-size="14">02</text><rect x="820" y="692" width="92" height="28" rx="14" fill="#ffe1df"/><text x="842" y="711" fill="#bf5b57" font-size="12">Low Stock</text>
  <rect x="1042" y="373" width="348" height="205" rx="12" fill="#fff" stroke="#dce3eb"/><text x="1068" y="414" fill="#202b4b" font-size="20" font-weight="700">Recent Activity</text><text x="1068" y="458" fill="#718094" font-size="14">Aarav Sharma borrowed</text><text x="1068" y="480" fill="#536fe0" font-size="13">Clean Code</text><text x="1068" y="520" fill="#718094" font-size="14">Maya Rai returned</text><text x="1068" y="542" fill="#536fe0" font-size="13">Web Development Basics</text>
  <rect x="1042" y="602" width="348" height="196" rx="12" fill="#202b4b"/><text x="1068" y="643" fill="#aebbd8" font-size="13">BORROW &amp; RETURN</text><text x="1068" y="690" fill="#fff" font-size="30" font-weight="700">24 due today</text><text x="1068" y="722" fill="#bfcbe2" font-size="14">Keep student records up to date</text><rect x="1068" y="748" width="200" height="7" rx="4" fill="#536fe0"/><rect x="1273" y="748" width="88" height="7" rx="4" fill="#7489e8"/>
  </g>
</svg>
