<svg xmlns="http://www.w3.org/2000/svg" viewBox="0 0 1440 900" role="img" aria-labelledby="title desc">
  <title id="title">Modern mobile application mockup</title>
  <desc id="desc">Three smartphone screens showing a modern mobile application home, activity and profile experience.</desc>
  <defs><linearGradient id="bg" x1="0" y1="0" x2="1" y2="1"><stop stop-color="#102a36"/><stop offset="1" stop-color="#241a36"/></linearGradient><linearGradient id="screen" x1="0" y1="0" x2="1" y2="1"><stop stop-color="#e4f6f2"/><stop offset="1" stop-color="#b7d9e7"/></linearGradient></defs>
  <rect width="1440" height="900" fill="url(#bg)"/><circle cx="250" cy="110" r="180" fill="#62e0ff18"/><circle cx="1190" cy="760" r="220" fill="#ff71941a"/><path d="M0 700L1440 250" stroke="#ffffff12" stroke-width="1"/><path d="M0 760L1440 310" stroke="#ffffff12" stroke-width="1"/>
  <g font-family="Arial,sans-serif"><text x="90" y="110" fill="#62e0ff" font-size="13" font-weight="700" letter-spacing="4">MOBILE EXPERIENCE</text><text x="90" y="170" fill="#f2fbfc" font-size="43" font-weight="700">Designed for every tap.</text><text x="90" y="212" fill="#a6bec4" font-size="16">A clean cross-platform interface built with React Native and Expo.</text>
  <g transform="translate(245 285) rotate(-7 150 260)"><rect width="300" height="560" rx="38" fill="#0a1017" stroke="#62e0ff77" stroke-width="3"/><rect x="14" y="14" width="272" height="532" rx="28" fill="url(#screen)"/><rect x="103" y="25" width="94" height="20" rx="10" fill="#0a1017"/><text x="38" y="83" fill="#29454c" font-size="13">Good morning, Sandeep</text><text x="38" y="120" fill="#122d35" font-size="25" font-weight="700">Explore</text><circle cx="240" cy="112" r="23" fill="#62e0ff"/><text x="233" y="119" fill="#12303a" font-size="18">+</text><rect x="32" y="151" width="236" height="112" rx="17" fill="#173e4b"/><text x="51" y="184" fill="#9ce9e6" font-size="11">YOUR PROGRESS</text><text x="51" y="226" fill="#ffffff" font-size="29" font-weight="700">72%</text><path d="M149 216h87" stroke="#62e0ff" stroke-width="8" stroke-linecap="round"/><text x="39" y="306" fill="#29454c" font-size="14" font-weight="700">Quick actions</text><rect x="32" y="325" width="70" height="70" rx="14" fill="#ffffff"/><rect x="115" y="325" width="70" height="70" rx="14" fill="#ffffff"/><rect x="198" y="325" width="70" height="70" rx="14" fill="#ffffff"/><circle cx="67" cy="355" r="13" fill="#ff7194"/><circle cx="150" cy="355" r="13" fill="#62a9d2"/><circle cx="233" cy="355" r="13" fill="#f3b85e"/><text x="45" y="419" fill="#657d82" font-size="10">Plan</text><text x="131" y="419" fill="#657d82" font-size="10">Track</text><text x="214" y="419" fill="#657d82" font-size="10">More</text><path d="M34 483H266" stroke="#b4cccf"/><text x="39" y="516" fill="#657d82" font-size="11">Home</text><text x="105" y="516" fill="#657d82" font-size="11">Activity</text><text x="188" y="516" fill="#657d82" font-size="11">Profile</text></g>
  <g transform="translate(570 260)"><rect width="300" height="560" rx="38" fill="#0a1017" stroke="#ff719477" stroke-width="3"/><rect x="14" y="14" width="272" height="532" rx="28" fill="#f8f4f0"/><rect x="103" y="25" width="94" height="20" rx="10" fill="#0a1017"/><text x="38" y="83" fill="#5a6871" font-size="13">Activity</text><text x="38" y="125" fill="#1b303a" font-size="27" font-weight="700">Your week</text><rect x="32" y="153" width="236" height="137" rx="16" fill="#ff7194"/><text x="52" y="188" fill="#fff0f3" font-size="11">COMPLETED TASKS</text><text x="52" y="237" fill="#fff" font-size="38" font-weight="700">28</text><text x="177" y="237" fill="#ffe3e9" font-size="12">+14% this week</text><path d="M44 390L80 350 112 370 145 325 179 350 218 304 256 330" fill="none" stroke="#62a9d2" stroke-width="5"/><path d="M40 426H260" stroke="#d8e0df"/><text x="40" y="466" fill="#1b303a" font-size="13" font-weight="700">Recent activity</text><circle cx="49" cy="495" r="6" fill="#62a9ff"/><text x="65" y="500" fill="#66777d" font-size="11">New project added</text><circle cx="49" cy="525" r="6" fill="#ff7194"/><text x="65" y="530" fill="#66777d" font-size="11">Profile updated</text></g>
  <g transform="translate(895 285) rotate(7 150 260)"><rect width="300" height="560" rx="38" fill="#0a1017" stroke="#62e0ff77" stroke-width="3"/><rect x="14" y="14" width="272" height="532" rx="28" fill="#e9f0fb"/><rect x="103" y="25" width="94" height="20" rx="10" fill="#0a1017"/><circle cx="150" cy="112" r="47" fill="#62e0ff"/><text x="136" y="128" fill="#12303a" font-size="39" font-weight="700">S</text><text x="95" y="190" fill="#1b303a" font-size="20" font-weight="700">Sandeep</text><text x="83" y="215" fill="#657d82" font-size="12">IT student &amp; developer</text><rect x="32" y="255" width="236" height="57" rx="13" fill="#ffffff"/><text x="54" y="290" fill="#4e636a" font-size="13">Edit profile</text><text x="239" y="290" fill="#62a9d2" font-size="18">›</text><rect x="32" y="327" width="236" height="57" rx="13" fill="#ffffff"/><text x="54" y="362" fill="#4e636a" font-size="13">Notifications</text><text x="239" y="362" fill="#62a9d2" font-size="18">›</text><rect x="32" y="399" width="236" height="57" rx="13" fill="#ffffff"/><text x="54" y="434" fill="#4e636a" font-size="13">Settings</text><text x="239" y="434" fill="#62a9d2" font-size="18">›</text><path d="M34 483H266" stroke="#b4cccf"/><text x="39" y="516" fill="#657d82" font-size="11">Home</text><text x="105" y="516" fill="#657d82" font-size="11">Activity</text><text x="188" y="516" fill="#657d82" font-size="11">Profile</text></g></g>
</svg>
